<svg width="512" height="512" viewBox="0 0 512 512" fill="none" xmlns="http://www.w3.org/2000/svg">
  <defs>
    <linearGradient id="woodTop" x1="256" y1="84" x2="256" y2="198" gradientUnits="userSpaceOnUse">
      <stop stop-color="#B07A45"/>
      <stop offset="1" stop-color="#7B502A"/>
    </linearGradient>
    <linearGradient id="woodBody" x1="256" y1="206" x2="256" y2="418" gradientUnits="userSpaceOnUse">
      <stop stop-color="#9A6334"/>
      <stop offset="1" stop-color="#603917"/>
    </linearGradient>
    <linearGradient id="metal" x1="256" y1="140" x2="256" y2="332" gradientUnits="userSpaceOnUse">
      <stop stop-color="#EEE5B9"/>
      <stop offset="1" stop-color="#B59B4E"/>
    </linearGradient>
    <pattern id="planks" width="42" height="42" patternUnits="userSpaceOnUse">
      <rect width="42" height="42" fill="#9D6938"/>
      <rect y="0" width="42" height="7" fill="#B17A46"/>
      <rect y="20" width="42" height="7" fill="#7D4F28"/>
      <rect x="0" y="34" width="42" height="8" fill="#8B5A30"/>
      <rect x="18" y="7" width="6" height="13" fill="#C58A52" fill-opacity="0.6"/>
      <rect x="4" y="27" width="7" height="7" fill="#6F421E" fill-opacity="0.7"/>
    </pattern>
    <filter id="shadow" x="-20%" y="-20%" width="140%" height="160%">
      <feDropShadow dx="0" dy="18" stdDeviation="18" flood-color="#120B04" flood-opacity="0.45"/>
    </filter>
  </defs>

  <g filter="url(#shadow)">
    <rect x="82" y="88" width="348" height="118" rx="12" fill="url(#woodTop)"/>
    <rect x="82" y="88" width="348" height="118" rx="12" fill="url(#planks)" fill-opacity="0.84"/>
    <rect x="82" y="206" width="348" height="196" rx="10" fill="url(#woodBody)"/>
    <rect x="82" y="206" width="348" height="196" rx="10" fill="url(#planks)" fill-opacity="0.92"/>

    <rect x="232" y="126" width="48" height="158" rx="8" fill="url(#metal)"/>
    <rect x="218" y="246" width="76" height="78" rx="10" fill="url(#metal)"/>
    <rect x="236" y="264" width="40" height="42" rx="8" fill="#7C632C"/>

    <rect x="98" y="104" width="14" height="282" fill="#4B2B14" fill-opacity="0.72"/>
    <rect x="400" y="104" width="14" height="282" fill="#D19B61" fill-opacity="0.28"/>
    <rect x="96" y="190" width="320" height="12" fill="#4A2C17" fill-opacity="0.78"/>
    <rect x="96" y="206" width="320" height="14" fill="#D59A59" fill-opacity="0.28"/>

    <rect x="112" y="122" width="96" height="56" fill="#CB9054" fill-opacity="0.22"/>
    <rect x="118" y="240" width="104" height="116" fill="#D99F60" fill-opacity="0.14"/>
  </g>
</svg>
